<?xml version="1.0" standalone="no"?>
<!DOCTYPE svg PUBLIC "-//W3C//DTD SVG 20010904//EN"
 "http://www.w3.org/TR/2001/REC-SVG-20010904/DTD/svg10.dtd">
<svg version="1.0" xmlns="http://www.w3.org/2000/svg"
 width="231.000000pt" height="219.000000pt" viewBox="0 0 231.000000 219.000000"
 preserveAspectRatio="xMidYMid meet">

<g transform="translate(0.000000,219.000000) scale(0.100000,-0.100000)"
fill="#000000" stroke="none">
<path d="M1290 1959 c-12 -7 -13 -11 -2 -18 11 -6 10 -10 -5 -16 -17 -7 -17
-8 2 -15 19 -8 19 -9 -2 -9 -13 -1 -23 -5 -23 -11 0 -5 -14 -7 -30 -5 -22 2
-33 -2 -40 -15 -11 -20 -4 -50 11 -50 5 0 15 -15 22 -32 l14 -33 0 30 c0 55
12 84 44 100 34 18 80 13 103 -11 9 -9 17 -10 21 -4 3 5 1 10 -6 10 -9 0 -9 4
1 15 6 8 9 19 5 25 -3 5 -2 10 3 10 17 0 8 30 -10 36 -25 8 -35 -3 -22 -24 15
-24 6 -42 -19 -41 -22 0 -22 0 1 9 34 14 26 23 -15 16 -21 -3 -32 -3 -25 0 10
5 9 9 -5 20 -10 7 -13 14 -6 14 6 0 15 -4 18 -10 9 -14 32 -12 32 3 0 15 -47
20 -67 6z m-62 -105 c-6 -13 -16 -20 -24 -17 -16 6 -16 6 -9 25 3 8 14 14 24
14 16 0 17 -4 9 -22z"/>
<path d="M1234 1918 l-19 -21 28 18 c28 18 33 25 19 25 -5 0 -17 -10 -28 -22z"/>
<path d="M1443 1928 c-18 -9 -20 -14 -11 -34 13 -29 4 -56 -17 -48 -13 5 -13
2 2 -25 10 -17 24 -32 31 -32 6 -1 18 -2 25 -3 21 -2 36 -20 26 -32 -5 -6 -6
-20 -2 -30 6 -18 6 -18 -10 -2 -9 9 -17 23 -17 30 -1 7 -9 -8 -20 -35 -10 -26
-16 -57 -14 -70 4 -19 3 -20 -4 -3 -6 13 -11 16 -15 9 -11 -17 12 -27 67 -27
31 -1 50 -6 52 -14 1 -7 0 -8 -3 -2 -2 5 -9 10 -14 10 -6 0 -5 -10 2 -22 11
-21 12 -21 25 -3 11 14 11 22 2 32 -8 10 -8 17 -1 21 5 4 12 14 15 22 3 8 5
-5 4 -30 -1 -25 -5 -51 -9 -57 -5 -7 -4 -13 1 -13 14 0 32 47 32 83 0 40 -13
62 -33 54 -11 -4 -16 5 -20 41 -2 26 -8 56 -12 67 -6 19 -6 20 9 1 8 -10 13
-23 10 -27 -3 -5 0 -9 5 -9 15 0 14 5 -8 48 -10 20 -20 42 -21 47 -1 6 -7 8
-13 6 -26 -7 -56 -8 -52 0 3 4 1 11 -5 14 -8 5 -7 11 1 21 10 13 15 12 33 -3
l21 -18 -19 23 c-11 12 -20 22 -20 21 -1 0 -11 -5 -23 -11z m85 -213 c-3 -3
-9 2 -12 12 -6 14 -5 15 5 6 7 -7 10 -15 7 -18z"/>
<path d="M1450 1906 c0 -3 9 -10 20 -16 11 -6 20 -8 20 -6 0 3 -9 10 -20 16
-11 6 -20 8 -20 6z"/>
<path d="M1300 1615 c0 -32 -3 -35 -28 -35 l-28 0 -18 -160 c-10 -88 -15 -167
-12 -176 4 -11 15 -15 34 -12 22 3 28 0 29 -14 1 -10 -5 -18 -13 -18 -14 0
-21 -49 -6 -51 72 -11 72 -11 72 29 0 20 4 32 8 26 8 -13 151 -18 168 -7 15
11 52 136 60 204 5 47 3 62 -20 108 -20 38 -32 51 -42 47 -9 -3 -19 -6 -24 -6
-15 0 -29 -57 -35 -152 -7 -95 -7 -96 -36 -107 -16 -6 -43 -16 -59 -22 -17 -7
-32 -10 -34 -8 -2 2 -6 75 -8 161 -2 132 -1 159 12 163 13 5 13 7 0 15 -10 7
-11 10 -2 10 17 0 15 27 -3 34 -12 4 -15 -3 -15 -29z"/>
<path d="M679 1472 c-16 -7 -10 -43 36 -239 5 -21 2 -23 -40 -23 -41 0 -45 -2
-45 -25 0 -14 -5 -25 -10 -25 -6 0 -8 11 -6 25 l5 26 -97 -3 -97 -3 -3 -27
c-3 -26 -1 -27 45 -30 l48 -3 0 -37 c-1 -21 -2 -174 -3 -340 l-2 -301 -22 19
-23 19 23 -26 c21 -24 22 -28 7 -55 -16 -30 -20 -92 -7 -109 26 -36 110 -64
124 -42 6 9 10 9 17 -2 14 -21 137 -11 154 13 11 16 22 18 59 12 28 -4 56 -2
74 6 l29 12 -26 3 -26 4 18 67 c10 37 16 69 13 71 -2 2 -16 -1 -30 -8 -26 -12
-36 -9 -68 18 -10 9 -30 18 -45 19 -54 8 -167 7 -195 -1 l-29 -8 7 332 c3 183
8 334 9 336 2 1 121 3 265 3 l262 1 0 33 c0 17 -4 36 -9 42 -5 5 -21 64 -37
132 l-27 122 -166 -1 c-91 0 -173 -3 -182 -7z m221 -62 c0 -19 -11 -26 -23
-14 -8 8 3 34 14 34 5 0 9 -9 9 -20z m190 -228 c0 -20 -3 -23 -9 -12 -6 8 -7
18 -5 22 3 4 0 8 -6 8 -6 0 -8 5 -5 10 11 17 25 1 25 -28z m-230 -852 c0 -5
-4 -10 -10 -10 -5 0 -10 5 -10 10 0 6 5 10 10 10 6 0 10 -4 10 -10z"/>
<path d="M1113 1189 c-1 -11 2 -17 8 -14 5 4 9 0 9 -8 0 -15 34 -29 44 -19 3
3 6 17 5 31 l-1 26 -8 -25 -8 -25 -2 25 -2 25 -8 -25 c-7 -21 -15 -13 -12 12
1 3 -4 8 -11 11 -8 3 -14 -3 -14 -14z"/>
<path d="M1187 1165 c-4 -22 -7 -203 -7 -403 0 -239 -3 -361 -10 -357 -7 4 -7
-3 0 -20 6 -15 10 -42 10 -61 0 -27 4 -34 20 -34 19 0 20 7 21 243 1 208 12
414 18 337 1 -14 23 -90 49 -170 l48 -145 47 -3 47 -3 -5 48 c-13 117 -14 133
-11 133 3 0 12 -26 21 -57 9 -32 25 -88 36 -125 l20 -68 39 0 c32 0 40 4 40
18 0 9 -11 109 -24 222 -13 113 -22 206 -21 208 2 2 20 -1 42 -7 103 -29 198
10 218 90 6 26 5 27 -67 38 -40 6 -131 20 -202 31 -71 11 -150 20 -176 20 -43
0 -51 -4 -81 -37 l-32 -37 5 89 c3 50 2 77 -2 60 l-8 -30 -2 30 -2 30 -8 -30
-7 -30 -4 30 c-4 29 -5 29 -12 -10z m243 -215 c0 -11 -4 -20 -8 -20 -4 0 -8 9
-8 20 0 11 4 20 8 20 4 0 8 -9 8 -20z"/>
<path d="M1620 605 c0 -50 4 -85 10 -85 6 0 10 35 10 85 0 50 -4 85 -10 85 -6
0 -10 -35 -10 -85z"/>
<path d="M430 536 c0 -2 8 -10 18 -17 15 -13 16 -12 3 4 -13 16 -21 21 -21 13z"/>
<path d="M1621 428 c1 -121 4 -128 48 -126 l36 1 -32 4 c-37 5 -36 1 -34 121
1 52 -2 82 -9 82 -6 0 -10 -31 -9 -82z"/>
<path d="M1717 402 c-21 -21 -35 -41 -32 -44 3 -3 -1 -8 -10 -12 -9 -3 -13 -2
-10 4 3 6 0 10 -8 10 -10 0 -13 -7 -10 -21 6 -20 11 -21 62 -15 61 7 93 25 48
27 -15 1 -31 3 -37 4 -5 1 -15 3 -22 4 -7 0 6 19 27 41 21 22 37 40 34 40 -3
0 -22 -17 -42 -38z m-10 -68 c-3 -3 -12 -4 -19 -1 -8 3 -5 6 6 6 11 1 17 -2
13 -5z"/>
<path d="M1455 330 c3 -5 8 -10 11 -10 2 0 4 5 4 10 0 6 -5 10 -11 10 -5 0 -7
-4 -4 -10z"/>
<path d="M1514 331 c4 -5 -4 -7 -16 -3 -14 3 -19 2 -14 -6 10 -17 46 -15 46 3
0 8 -5 15 -11 15 -5 0 -8 -4 -5 -9z"/>
<path d="M1790 329 c0 -5 5 -7 10 -4 6 3 10 8 10 11 0 2 -4 4 -10 4 -5 0 -10
-5 -10 -11z"/>
<path d="M1748 313 c6 -2 18 -2 25 0 6 3 1 5 -13 5 -14 0 -19 -2 -12 -5z"/>
<path d="M0 80 l0 -80 1155 0 1155 0 0 80 0 80 -1155 0 -1155 0 0 -80z m196
30 c36 0 54 -4 54 -12 0 -9 4 -8 10 2 7 11 10 5 10 -22 0 -27 -4 -38 -15 -38
-8 0 -15 5 -15 11 0 5 -4 7 -10 4 -6 -4 -11 6 -11 22 l-1 28 -8 -30 -8 -30 -2
30 c-2 29 -3 29 -9 5 -5 -22 -11 -25 -50 -25 -29 0 -46 5 -49 14 -3 8 0 11 5
8 5 -3 10 0 10 8 0 8 -4 12 -9 9 -10 -6 -11 10 -1 19 3 4 12 2 20 -4 10 -9 13
-7 14 7 0 11 3 14 6 7 3 -8 25 -13 59 -13z m1854 -47 c0 -10 -57 -9 -67 0 -3
4 10 7 30 7 21 0 37 -3 37 -7z m78 2 c-8 -8 -58 -13 -58 -6 0 4 14 8 31 9 17
0 29 -1 27 -3z m82 -5 c-19 -13 -30 -13 -30 0 0 6 10 10 23 10 18 0 19 -2 7
-10z"/>
</g>
</svg>
